# xmcd
# 
# Track frame offsets:
#     150
#     18221
#     40522
#     57260
# 
# Disc length: 1134
# 
# Revision: 0
# Processed by: cddbd v1.5.2PL0 Copyright (c) Steve Scherf et al.
# Submitted via: fre:ac v1.0.17
# 
DISCID=23046c04
DTITLE=Juergen Drews - 6 x 6 am Tag
DYEAR=2002
DGENRE=Humour
TTITLE0=6 x 6
TTITLE1=Hey! Amigo Charly Browen
TTITLE2=Wieder alles im Griff (Huetten-Version)
TTITLE3=Schumania 2002
EXTD=
EXTT0=
EXTT1=
EXTT2=
EXTT3=
PLAYORDER=
